<svg width="64" height="64" viewBox="0 0 24 24" fill="none" xmlns="http://www.w3.org/2000/svg">
  <path
    fill-rule="evenodd"
    clip-rule="evenodd"
    d="M12.01 1.84c-3.58 0-6.33 2.88-6.33 6.53v3.99c0 1.86-.67 3.47-2 4.83-.23.24-.07.64.27.66 1.58.1 2.89-.52 3.94-1.85.4 1.49.04 2.95-1.07 4.4-.2.27.03.66.37.63 2.01-.21 3.55-1.08 4.62-2.6.43 1.39.09 2.78-1.01 4.17-.2.25.01.62.32.61 3.03-.1 5.18-1.79 6.45-5.06.74 1.05 1.8 1.66 3.17 1.84.35.05.58-.35.35-.62-1.23-1.47-1.84-3.08-1.84-4.84V8.37c0-3.65-2.75-6.53-6.24-6.53ZM9.12 7.4c.67 0 1.2.82 1.2 1.82s-.53 1.82-1.2 1.82c-.66 0-1.2-.82-1.2-1.82s.54-1.82 1.2-1.82Zm5.52 0c.67 0 1.2.82 1.2 1.82s-.53 1.82-1.2 1.82c-.66 0-1.2-.82-1.2-1.82s.54-1.82 1.2-1.82Z"
    fill="#8EDFFF"
  />
</svg>
